<svg width="24" height="24" viewBox="0 0 24 24" fill="none" xmlns="http://www.w3.org/2000/svg">
<path d="M19.8766 19.2808C19.9556 19.3598 20 19.467 20 19.5787C20 19.6905 19.9556 19.7976 19.8766 19.8766C19.7976 19.9556 19.6905 20 19.5787 20C19.467 20 19.3598 19.9556 19.2808 19.8766L12 12.5958L4.71916 19.8766C4.64016 19.9556 4.533 20 4.42127 20C4.30955 20 4.20239 19.9556 4.12339 19.8766C4.04438 19.7976 4 19.6905 4 19.5787C4 19.467 4.04438 19.3598 4.12339 19.2808L11.4042 12L4.12339 4.71916C4.04438 4.64016 4 4.533 4 4.42127C4 4.30955 4.04438 4.20239 4.12339 4.12339C4.20239 4.04438 4.30955 4 4.42127 4C4.533 4 4.64016 4.04438 4.71916 4.12339L12 11.4042L19.2808 4.12339C19.32 4.08427 19.3664 4.05324 19.4175 4.03207C19.4686 4.0109 19.5234 4 19.5787 4C19.634 4 19.6888 4.0109 19.7399 4.03207C19.7911 4.05324 19.8375 4.08427 19.8766 4.12339C19.9157 4.16251 19.9468 4.20895 19.9679 4.26006C19.9891 4.31117 20 4.36595 20 4.42127C20 4.4766 19.9891 4.53138 19.9679 4.58249C19.9468 4.6336 19.9157 4.68004 19.8766 4.71916L12.5958 12L19.8766 19.2808Z" fill="black"/>
</svg>
