<svg width="24" height="24" viewBox="0 0 24 24" fill="none" xmlns="http://www.w3.org/2000/svg">
<path d="M18.8571 4H15.0476C14.7445 4 14.4538 4.10994 14.2395 4.30563C14.0252 4.50132 13.9048 4.76673 13.9048 5.04348V18.9565C13.9048 19.2333 14.0252 19.4987 14.2395 19.6944C14.4538 19.8901 14.7445 20 15.0476 20H18.8571C19.1602 20 19.4509 19.8901 19.6653 19.6944C19.8796 19.4987 20 19.2333 20 18.9565V5.04348C20 4.76673 19.8796 4.50132 19.6653 4.30563C19.4509 4.10994 19.1602 4 18.8571 4ZM19.2381 18.9565C19.2381 19.0488 19.198 19.1372 19.1265 19.2025C19.0551 19.2677 18.9582 19.3043 18.8571 19.3043H15.0476C14.9466 19.3043 14.8497 19.2677 14.7782 19.2025C14.7068 19.1372 14.6667 19.0488 14.6667 18.9565V5.04348C14.6667 4.95123 14.7068 4.86276 14.7782 4.79753C14.8497 4.7323 14.9466 4.69565 15.0476 4.69565H18.8571C18.9582 4.69565 19.0551 4.7323 19.1265 4.79753C19.198 4.86276 19.2381 4.95123 19.2381 5.04348V18.9565ZM8.95238 4H5.14286C4.83975 4 4.54906 4.10994 4.33473 4.30563C4.12041 4.50132 4 4.76673 4 5.04348V18.9565C4 19.2333 4.12041 19.4987 4.33473 19.6944C4.54906 19.8901 4.83975 20 5.14286 20H8.95238C9.25549 20 9.54618 19.8901 9.7605 19.6944C9.97483 19.4987 10.0952 19.2333 10.0952 18.9565V5.04348C10.0952 4.76673 9.97483 4.50132 9.7605 4.30563C9.54618 4.10994 9.25549 4 8.95238 4ZM9.33333 18.9565C9.33333 19.0488 9.2932 19.1372 9.22176 19.2025C9.15031 19.2677 9.05342 19.3043 8.95238 19.3043H5.14286C5.04182 19.3043 4.94493 19.2677 4.87348 19.2025C4.80204 19.1372 4.7619 19.0488 4.7619 18.9565V5.04348C4.7619 4.95123 4.80204 4.86276 4.87348 4.79753C4.94493 4.7323 5.04182 4.69565 5.14286 4.69565H8.95238C9.05342 4.69565 9.15031 4.7323 9.22176 4.79753C9.2932 4.86276 9.33333 4.95123 9.33333 5.04348V18.9565Z" fill="black"/>
</svg>
