<svg width="24" height="24" viewBox="0 0 24 24" fill="none" xmlns="http://www.w3.org/2000/svg">
<path d="M21.4591 11.091L7.73716 3.16104C7.56379 3.0594 7.36463 3.00383 7.16065 3.00019C6.95667 2.99655 6.75542 3.04496 6.57811 3.14034C6.4021 3.23175 6.25547 3.36639 6.15371 3.53003C6.05196 3.69367 5.99886 3.88024 6.00002 4.07004V19.93C5.99886 20.1198 6.05196 20.3063 6.15371 20.47C6.25547 20.6336 6.4021 20.7683 6.57811 20.8597C6.75542 20.955 6.95667 21.0035 7.16065 20.9998C7.36463 20.9962 7.56379 20.9406 7.73716 20.839L21.4591 12.909C21.6242 12.8141 21.7608 12.6806 21.8555 12.5214C21.9502 12.3622 22 12.1827 22 12C22 11.8173 21.9502 11.6378 21.8555 11.4786C21.7608 11.3194 21.6242 11.1859 21.4591 11.091ZM21.061 12.2943L7.33907 20.2252C7.28097 20.2589 7.21435 20.2773 7.14617 20.2784C7.07799 20.2795 7.01074 20.2633 6.95145 20.2315C6.89362 20.2024 6.8453 20.1589 6.81173 20.1058C6.77815 20.0527 6.7606 19.9919 6.76097 19.93V4.07004C6.7606 4.00815 6.77815 3.94734 6.81173 3.89419C6.8453 3.84105 6.89362 3.7976 6.95145 3.76854C7.01074 3.73671 7.07799 3.7205 7.14617 3.72161C7.21435 3.72272 7.28097 3.7411 7.33907 3.77484L21.061 11.7057C21.1151 11.736 21.1599 11.779 21.191 11.8306C21.2222 11.8822 21.2385 11.9406 21.2385 12C21.2385 12.0594 21.2222 12.1178 21.191 12.1694C21.1599 12.221 21.1151 12.264 21.061 12.2943Z" fill="black"/>
</svg>
